<svg width="168.000000" height="30.000000" viewBox="0 0 168 30" fill="none" xmlns="http://www.w3.org/2000/svg" xmlns:xlink="http://www.w3.org/1999/xlink">
	<desc>
			Created with Pixso.
	</desc>
	<defs>
		<clipPath id="clip1_3482">
			<rect id="logo" rx="0.000000" width="29.000000" height="29.000000" transform="translate(73.500000 0.500000)" fill="white" fill-opacity="0"/>
		</clipPath>
		<radialGradient gradientTransform="translate(88 14.9998) rotate(0) scale(14.9075 15.0942)" cx="0.000000" cy="0.000000" r="1.000000" id="paint_radial_1_3484_0" gradientUnits="userSpaceOnUse">
			<stop offset="0.000000" stop-color="#CFCFFA"/>
			<stop offset="1.000000" stop-color="#767FF7"/>
		</radialGradient>
	</defs>
	<g opacity="0.750000">
		<rect id="logo" rx="0.000000" width="29.000000" height="29.000000" transform="translate(73.500000 0.500000)" fill="#FFFFFF" fill-opacity="0"/>
		<g clip-path="url(#clip1_3482)">
			<path id="Vector" d="M88 29.99C88 29.99 88 29.99 87.99 29.99C87.49 29.99 71.64 29.91 73.09 20.94C73.1 20.87 73.11 20.81 73.12 20.75C73.14 20.63 73.17 20.51 73.2 20.39C73.25 20.15 73.31 19.92 73.36 19.69C73.4 19.54 73.43 19.39 73.47 19.25C73.5 19.11 73.54 18.97 73.57 18.84C73.61 18.71 73.64 18.58 73.67 18.45C73.68 18.44 73.68 18.44 73.68 18.43C73.74 18.19 73.81 17.95 73.88 17.71C73.88 17.68 73.89 17.64 73.9 17.61C74.4 15.84 74.98 14.1 75.7 12.42C76.48 10.58 77.47 8.93 78.61 7.3C80.28 4.94 82.25 2.35 84.75 0.85C85.71 0.27 86.86 -0.1 88 0.01C89.13 -0.1 90.27 0.27 91.24 0.85C93.74 2.35 95.71 4.94 97.38 7.3C98.52 8.93 99.51 10.58 100.29 12.42C101.18 14.5 101.86 16.67 102.42 18.86C102.48 19.09 102.54 19.32 102.59 19.55C102.6 19.55 102.6 19.56 102.6 19.56C102.63 19.7 102.66 19.83 102.69 19.96C102.71 20.02 102.72 20.08 102.74 20.14C102.76 20.22 102.77 20.31 102.79 20.39C104.99 29.91 88.51 29.99 88 29.99Z" fill="url(#paint_radial_1_3484_0)" fill-opacity="1.000000" fill-rule="nonzero"/>
			<path id="Vector" d="M73.67 18.45C73.64 18.58 73.61 18.71 73.57 18.84C73.54 18.97 73.5 19.11 73.47 19.25C73.43 19.39 73.4 19.54 73.36 19.69C73.31 19.92 73.25 20.15 73.2 20.39C73.17 20.51 73.14 20.63 73.12 20.75C73.11 20.81 73.1 20.87 73.09 20.94C71.64 29.91 87.49 29.99 87.99 29.99L88 29.99C88.51 29.99 104.99 29.91 102.79 20.39C102.77 20.31 102.76 20.22 102.74 20.14C102.72 20.08 102.71 20.02 102.69 19.96C102.66 19.83 102.63 19.7 102.6 19.56C102.6 19.56 102.6 19.55 102.59 19.55C102.54 19.32 102.48 19.09 102.42 18.86C101.86 16.67 101.18 14.5 100.29 12.42C99.51 10.58 98.52 8.93 97.38 7.3C95.71 4.94 93.74 2.35 91.24 0.85C90.27 0.27 89.13 -0.1 88 0.01C86.86 -0.1 85.71 0.27 84.75 0.85C82.25 2.35 80.28 4.94 78.61 7.3C77.47 8.93 76.48 10.58 75.7 12.42C74.98 14.1 74.4 15.84 73.9 17.61C73.89 17.64 73.88 17.68 73.88 17.71C73.81 17.95 73.74 18.19 73.68 18.43C73.68 18.44 73.68 18.44 73.67 18.45ZM74.65 18.68Q74.75 18.3 74.84 17.98Q74.86 17.91 74.86 17.89Q75.64 15.11 76.62 12.81Q77.63 10.44 79.43 7.88Q82.69 3.25 85.26 1.71Q86.63 0.89 87.9 1.01L88 1.02L88.09 1.01Q89.36 0.89 90.73 1.71Q93.3 3.25 96.56 7.88Q98.36 10.44 99.37 12.81Q100.55 15.59 101.45 19.11L101.57 19.57L101.64 19.85L101.72 20.2Q101.73 20.22 101.74 20.26Q101.75 20.33 101.76 20.36L101.76 20.37L101.77 20.38Q101.78 20.43 101.8 20.52Q101.81 20.58 101.82 20.61Q102.21 22.29 101.71 23.65Q100.71 26.38 96.12 27.81Q92.29 28.99 88 28.99L87.99 28.99Q83.86 28.99 80.09 27.87Q75.29 26.45 74.27 23.64Q73.85 22.49 74.08 21.1Q74.09 21.01 74.1 20.93Q74.13 20.78 74.17 20.61L74.23 20.35L74.33 19.92L74.44 19.49L74.54 19.08L74.64 18.71Q74.64 18.7 74.65 18.68Z" fill="#FFFFFF" fill-opacity="1.000000" fill-rule="evenodd"/>
			<circle id="Ellipse 6" cx="92.000122" cy="8.000061" r="2.000000" fill="#D7D9FF" fill-opacity="1.000000"/>
			<circle id="Ellipse 6" cx="92.000122" cy="8.000061" r="1.500000" stroke="#FFFFFF" stroke-opacity="1.000000" stroke-width="1.000000"/>
			<path id="Vector" d="M88 29.99C88 29.99 88 29.99 87.99 29.99C87.49 29.99 71.64 29.91 73.09 20.94C73.1 20.87 73.11 20.81 73.12 20.75C73.14 20.63 73.17 20.51 73.2 20.39C73.25 20.15 73.31 19.92 73.36 19.69C73.4 19.54 73.43 19.39 73.47 19.25C73.5 19.11 73.54 18.97 73.57 18.84C73.61 18.71 73.64 18.58 73.67 18.45C73.68 18.44 73.68 18.44 73.68 18.43C73.74 18.19 73.81 17.95 73.88 17.71C73.91 17.68 73.95 17.66 73.98 17.63C75.65 16.36 77.6 14.64 78.12 13.18C79.7 8.71 82.83 11.26 84.11 12.56C84.51 12.97 85.15 13.06 85.64 12.75C86.3 12.34 87.22 11.55 88.12 10.03C88.8 8.9 90.21 8.45 91.39 9.03C93.29 9.96 96.49 12.33 101.75 18.08C101.99 18.35 102.22 18.61 102.42 18.86C102.48 19.09 102.54 19.32 102.59 19.55C102.6 19.55 102.6 19.56 102.6 19.56C102.63 19.7 102.66 19.83 102.69 19.96C102.71 20.02 102.72 20.08 102.74 20.14C102.76 20.22 102.77 20.31 102.79 20.39C104.99 29.91 88.51 29.99 88 29.99Z" fill="#8589EB" fill-opacity="1.000000" fill-rule="nonzero"/>
			<path id="Vector" d="M73.67 18.45C73.64 18.58 73.61 18.71 73.57 18.84C73.54 18.97 73.5 19.11 73.47 19.25C73.43 19.39 73.4 19.54 73.36 19.69C73.31 19.92 73.25 20.15 73.2 20.39C73.17 20.51 73.14 20.63 73.12 20.75C73.11 20.81 73.1 20.87 73.09 20.94C71.64 29.91 87.49 29.99 87.99 29.99L88 29.99C88.51 29.99 104.99 29.91 102.79 20.39C102.77 20.31 102.76 20.22 102.74 20.14C102.72 20.08 102.71 20.02 102.69 19.96C102.66 19.83 102.63 19.7 102.6 19.56C102.6 19.56 102.6 19.55 102.59 19.55C102.54 19.32 102.48 19.09 102.42 18.86C102.22 18.61 101.99 18.35 101.75 18.08C96.49 12.33 93.29 9.96 91.39 9.03C90.21 8.45 88.8 8.9 88.12 10.03C87.22 11.55 86.3 12.34 85.64 12.75C85.15 13.06 84.51 12.97 84.11 12.56C82.83 11.26 79.7 8.71 78.12 13.18C77.6 14.64 75.65 16.36 73.98 17.63C73.95 17.66 73.91 17.68 73.88 17.71C73.81 17.95 73.74 18.19 73.68 18.43C73.68 18.44 73.68 18.44 73.67 18.45ZM74.64 18.71L74.54 19.08L74.44 19.49L74.33 19.92L74.33 19.93L74.23 20.35L74.17 20.61Q74.13 20.78 74.1 20.93Q74.09 21.01 74.08 21.1Q73.85 22.49 74.27 23.64Q75.29 26.45 80.09 27.87Q83.86 28.99 87.99 28.99L88 28.99Q92.29 28.99 96.12 27.81Q100.71 26.38 101.71 23.65Q102.21 22.29 101.82 20.61Q101.81 20.58 101.8 20.52Q101.78 20.43 101.77 20.38L101.76 20.37L101.76 20.36Q101.75 20.33 101.74 20.26Q101.73 20.22 101.72 20.2L101.64 19.85L101.57 19.57L101.51 19.32Q101.28 19.05 101.01 18.75Q94.54 11.68 90.95 9.93Q90.36 9.64 89.88 9.77Q89.36 9.91 88.98 10.55Q87.74 12.62 86.16 13.6Q85.41 14.07 84.72 13.99Q84.03 13.91 83.39 13.26Q82.07 11.9 81.02 11.68Q80.77 11.63 80.53 11.68Q79.64 11.86 79.06 13.51Q78.34 15.55 74.75 18.3Q74.7 18.48 74.65 18.68Q74.64 18.7 74.64 18.71Z" fill="#FFFFFF" fill-opacity="1.000000" fill-rule="evenodd"/>
			<g opacity="0.150000">
				<path id="Vector" d="M88 30C88 30 88 30 87.99 30C87.49 30 71.64 29.91 73.09 20.94C73.1 20.88 73.11 20.81 73.12 20.75C73.14 20.63 73.17 20.51 73.2 20.39C73.25 20.15 73.31 19.92 73.36 19.69C73.4 19.54 73.43 19.39 73.47 19.25C74.23 19.09 75.07 19.19 75.7 20.01C75.76 20.09 75.82 20.17 75.89 20.25C76.22 20.65 76.58 21.01 76.98 21.28C77.27 21.47 77.58 21.63 77.92 21.73C78.51 21.9 79.19 21.91 79.98 21.67C80.95 21.36 82.09 20.68 83.44 19.46C87.47 15.82 93.15 18.47 95 20.9C96.16 22.42 98.58 22.09 100.17 21.63C100.46 21.55 100.74 21.45 101.01 21.34C101.27 21.24 101.52 21.12 101.77 20.99C101.82 20.96 101.87 20.93 101.93 20.9C102.07 20.82 102.21 20.73 102.35 20.63C102.48 20.54 102.6 20.44 102.67 20.3C102.7 20.25 102.72 20.2 102.74 20.14C102.76 20.22 102.77 20.31 102.79 20.39C104.99 29.91 88.51 30 88 30Z" fill="#FFFFFF" fill-opacity="1.000000" fill-rule="nonzero"/>
				<path id="Vector" d="M88 30L87.99 30C87.49 30 71.64 29.91 73.09 20.94C73.1 20.88 73.11 20.81 73.12 20.75C73.14 20.63 73.17 20.51 73.2 20.39C73.25 20.15 73.31 19.92 73.36 19.69C73.4 19.54 73.43 19.39 73.47 19.25C74.23 19.09 75.07 19.19 75.7 20.01C75.76 20.09 75.82 20.17 75.89 20.25C76.22 20.65 76.58 21.01 76.98 21.28C77.27 21.47 77.58 21.63 77.92 21.73C78.51 21.9 79.19 21.91 79.98 21.67C80.95 21.36 82.09 20.68 83.44 19.46C87.47 15.82 93.15 18.47 95 20.9C96.16 22.42 98.58 22.09 100.17 21.63C100.46 21.55 100.74 21.45 101.01 21.34C101.27 21.24 101.52 21.12 101.77 20.99C101.81 20.97 101.85 20.95 101.88 20.92C101.9 20.92 101.91 20.91 101.93 20.9C102.07 20.82 102.21 20.73 102.35 20.63C102.48 20.54 102.6 20.44 102.67 20.3C102.7 20.25 102.72 20.2 102.74 20.14C102.76 20.22 102.77 20.31 102.79 20.39C102.88 20.74 102.93 21.09 102.96 21.42C103.78 29.92 88.49 30 88 30ZM101.99 22Q102 22.67 101.84 23.28Q101.8 23.43 101.75 23.58Q101.45 24.47 100.75 25.23Q99.27 26.83 96.12 27.81Q93.76 28.54 90.74 28.84Q89.77 28.93 88.83 28.97Q88.33 29 88 29L87.99 29Q87.67 29 87.19 28.97Q86.28 28.94 85.34 28.85Q82.42 28.56 80.09 27.87Q75.29 26.45 74.27 23.64Q73.85 22.49 74.08 21.1Q74.09 21.01 74.1 20.93Q74.13 20.78 74.17 20.61L74.23 20.35L74.27 20.2Q74.31 20.21 74.36 20.22Q74.37 20.23 74.37 20.23Q74.67 20.32 74.9 20.62Q75.03 20.79 75.12 20.89Q75.74 21.65 76.42 22.11Q77 22.5 77.63 22.69Q77.82 22.74 78.01 22.78Q79.08 22.99 80.27 22.62Q82.04 22.08 84.11 20.2Q84.91 19.48 85.85 19.1Q86.35 18.9 86.88 18.79Q88.27 18.51 89.81 18.87Q90.13 18.95 90.45 19.05Q91.49 19.39 92.45 19.98Q93.02 20.34 93.48 20.74Q93.91 21.12 94.2 21.5Q94.4 21.76 94.64 21.98Q95.09 22.39 95.68 22.64Q96.43 22.96 97.37 23.01Q98.77 23.08 100.45 22.59Q100.95 22.44 101.38 22.27Q101.71 22.14 101.99 22Z" fill="#FFFFFF" fill-opacity="1.000000" fill-rule="evenodd"/>
			</g>
			<g opacity="0.150000">
				<path id="Vector" d="M88 30C88 30 88 30 87.99 30C87.49 30 71.64 29.91 73.09 20.94C73.1 20.88 73.11 20.81 73.12 20.75C73.14 20.63 73.17 20.51 73.2 20.39C73.25 20.15 73.31 19.92 73.36 19.69C73.4 19.54 73.43 19.39 73.47 19.25C73.5 19.11 73.54 18.97 73.57 18.84C73.61 18.71 73.64 18.58 73.67 18.45C73.68 18.44 73.68 18.44 73.68 18.43C73.74 18.19 73.81 17.95 73.88 17.71C73.88 17.68 73.89 17.64 73.9 17.61C73.93 17.62 73.96 17.62 73.98 17.63C74.36 17.72 74.74 17.89 75.11 18.18C75.7 18.64 76.25 19.39 76.72 20.55C76.79 20.74 76.87 20.95 76.94 21.16C76.96 21.2 76.97 21.24 76.98 21.28C77.4 22.47 78.09 23.72 79.27 24.23C79.39 24.28 79.51 24.33 79.64 24.36C81.17 24.79 82.91 23.95 84.09 23.02C84.48 22.72 84.83 22.38 85.23 22.11C87.91 20.3 91.23 23.04 92.85 25.03C92.92 25.13 92.99 25.22 93.07 25.32C93.34 25.67 93.63 25.95 93.91 26.17C96.45 28.05 99.4 24.66 101.33 21.68C101.49 21.45 101.63 21.21 101.77 20.99C101.98 20.64 102.18 20.31 102.36 20C102.43 19.86 102.5 19.73 102.57 19.61C102.58 19.59 102.59 19.58 102.6 19.56C102.63 19.7 102.66 19.83 102.69 19.96C102.71 20.02 102.72 20.08 102.74 20.14C102.76 20.22 102.77 20.31 102.79 20.39C104.99 29.91 88.51 30 88 30Z" fill="#FFFFFF" fill-opacity="1.000000" fill-rule="nonzero"/>
				<path id="Vector" d="M73.67 18.45C73.64 18.58 73.61 18.71 73.57 18.84C73.54 18.97 73.5 19.11 73.47 19.25C73.43 19.39 73.4 19.54 73.36 19.69C73.31 19.92 73.25 20.15 73.2 20.39C73.17 20.51 73.14 20.63 73.12 20.75C73.11 20.81 73.1 20.88 73.09 20.94C71.64 29.91 87.49 30 87.99 30L88 30C88.5 30 104.25 29.92 102.92 21.02C102.88 20.82 102.84 20.6 102.79 20.39C102.77 20.31 102.76 20.22 102.74 20.14C102.72 20.08 102.71 20.02 102.69 19.96C102.66 19.83 102.63 19.7 102.6 19.56C102.59 19.58 102.58 19.59 102.57 19.61C102.5 19.73 102.43 19.86 102.36 20C102.21 20.26 102.04 20.54 101.87 20.83C101.83 20.88 101.8 20.94 101.77 20.99C101.63 21.21 101.49 21.45 101.33 21.68C99.4 24.66 96.45 28.05 93.91 26.17C93.63 25.95 93.34 25.67 93.07 25.32C92.99 25.22 92.92 25.13 92.85 25.03C91.23 23.04 87.91 20.3 85.23 22.11C84.83 22.38 84.48 22.72 84.09 23.02C82.91 23.95 81.17 24.79 79.64 24.36C79.51 24.33 79.39 24.28 79.27 24.23C78.09 23.72 77.4 22.47 76.98 21.28C76.97 21.24 76.96 21.2 76.94 21.16C76.87 20.95 76.79 20.74 76.72 20.55C76.25 19.39 75.7 18.64 75.11 18.18C75.02 18.11 74.93 18.04 74.84 17.99C74.67 17.88 74.51 17.8 74.34 17.74C74.22 17.69 74.1 17.66 73.98 17.63C73.96 17.62 73.93 17.62 73.9 17.61C73.89 17.64 73.88 17.68 73.88 17.71C73.81 17.95 73.74 18.19 73.68 18.43C73.68 18.44 73.68 18.44 73.67 18.45ZM74.56 19.02Q75.26 19.61 75.79 20.92Q75.9 21.2 76 21.48Q76 21.5 76.01 21.52Q76.03 21.59 76.05 21.63Q76.45 22.77 77.03 23.59Q77.77 24.64 78.79 25.11Q78.83 25.13 78.87 25.15Q79.11 25.25 79.36 25.32Q79.42 25.34 79.49 25.36Q80.8 25.68 82.33 25.14Q83.55 24.71 84.71 23.81Q84.87 23.69 85.15 23.44Q85.58 23.08 85.79 22.94Q86.1 22.74 86.43 22.63Q87.54 22.29 88.98 23.03Q89.83 23.47 90.69 24.23Q91.45 24.89 92.07 25.66Q92.16 25.78 92.28 25.93Q92.77 26.56 93.32 26.97Q93.92 27.42 94.59 27.59Q94.62 27.6 94.64 27.61Q94.82 27.65 95 27.68Q95.5 27.75 96.02 27.67Q97.21 27.49 98.46 26.54Q100.17 25.24 101.97 22.52Q101.94 22.91 101.84 23.28Q101.8 23.43 101.75 23.58Q101.45 24.47 100.75 25.23Q99.27 26.83 96.12 27.81Q93.76 28.54 90.74 28.84Q89.77 28.93 88.83 28.97Q88.33 29 88 29L87.99 29Q87.67 29 87.19 28.97Q86.28 28.94 85.34 28.85Q82.42 28.56 80.09 27.87Q75.29 26.45 74.27 23.64Q73.85 22.49 74.08 21.1Q74.09 21.01 74.1 20.93Q74.13 20.78 74.17 20.61L74.23 20.35L74.33 19.92L74.44 19.49L74.54 19.08L74.56 19.02Z" fill="#FFFFFF" fill-opacity="1.000000" fill-rule="evenodd"/>
			</g>
			<g opacity="0.150000">
				<path id="Vector" d="M88 30C88 30 88 30 87.99 30C87.49 30 71.64 29.91 73.09 20.94C73.79 20.52 74.84 20.07 75.89 20.25C76.16 20.3 76.44 20.39 76.72 20.55C77.14 20.78 77.55 21.16 77.92 21.73C78.13 22.05 78.32 22.43 78.5 22.88C78.69 23.38 78.95 23.84 79.27 24.23C79.79 24.85 80.48 25.28 81.36 25.33C82.75 25.41 84.03 24.67 85.13 23.9C87.65 22.17 89.8 25.31 92.35 25.96C92.9 26.1 93.42 26.16 93.91 26.17C96.76 26.2 98.85 24.26 100.06 22.72C100.49 22.18 100.81 21.69 101.01 21.34C101.18 21.05 101.27 20.87 101.27 20.87C101.27 20.87 101.69 20.16 102.36 20C102.38 19.99 102.4 19.98 102.42 19.98C102.51 19.96 102.6 19.96 102.69 19.96C102.71 20.02 102.72 20.08 102.74 20.14C102.76 20.22 102.77 20.31 102.79 20.39C104.99 29.91 88.51 30 88 30Z" fill="#FFFFFF" fill-opacity="1.000000" fill-rule="nonzero"/>
				<path id="Vector" d="M102.36 20C102.25 20.02 102.15 20.06 102.05 20.11C101.94 20.17 101.84 20.24 101.75 20.32C101.45 20.57 101.27 20.87 101.27 20.87C101.27 20.87 101.18 21.05 101.01 21.34C100.81 21.69 100.49 22.18 100.06 22.72C98.85 24.26 96.76 26.2 93.91 26.17C93.42 26.16 92.9 26.1 92.35 25.96C91.46 25.73 90.61 25.2 89.79 24.68C88.25 23.71 86.77 22.77 85.13 23.9C84.03 24.67 82.75 25.41 81.36 25.33C80.48 25.28 79.79 24.85 79.27 24.23C78.95 23.84 78.69 23.38 78.5 22.88C78.32 22.43 78.13 22.05 77.92 21.73C77.55 21.16 77.14 20.78 76.72 20.55C76.44 20.39 76.16 20.3 75.89 20.25C74.84 20.07 73.79 20.52 73.09 20.94C71.64 29.91 87.49 30 87.99 30L88 30C88.51 30 104.99 29.91 102.79 20.39C102.77 20.31 102.76 20.22 102.74 20.14C102.72 20.08 102.71 20.02 102.69 19.96C102.6 19.96 102.51 19.96 102.42 19.98C102.4 19.98 102.38 19.99 102.36 20ZM101.98 21.66Q102.04 22.52 101.84 23.28Q101.8 23.43 101.75 23.58Q101.45 24.47 100.75 25.23Q99.27 26.83 96.12 27.81Q93.76 28.54 90.74 28.84Q89.77 28.93 88.83 28.97Q88.33 29 88 29L87.99 29Q87.67 29 87.19 28.97Q86.28 28.94 85.34 28.85Q82.42 28.56 80.09 27.87Q75.29 26.45 74.27 23.64Q73.92 22.69 74.02 21.57Q74.34 21.42 74.64 21.33Q75.24 21.15 75.71 21.24Q75.89 21.27 76.06 21.34Q76.14 21.37 76.23 21.42Q76.69 21.68 77.08 22.27Q77.35 22.68 77.57 23.25Q77.93 24.19 78.5 24.87Q79.03 25.5 79.7 25.87Q80.02 26.05 80.36 26.16Q80.81 26.3 81.3 26.33Q82.48 26.4 83.75 25.85Q84.6 25.48 85.7 24.73Q86.09 24.46 86.48 24.4Q86.82 24.35 87.23 24.47Q87.63 24.58 88.16 24.87Q88.52 25.06 89.25 25.52Q90.12 26.07 90.58 26.31Q91.39 26.75 92.11 26.93Q93.01 27.16 93.9 27.17Q94.48 27.17 95.05 27.09Q96.66 26.85 98.15 25.87Q99.61 24.91 100.85 23.34Q101.42 22.61 101.87 21.85Q101.93 21.75 101.98 21.66Z" fill="#FFFFFF" fill-opacity="1.000000" fill-rule="evenodd"/>
			</g>
			<g opacity="0.150000">
				<path id="Vector" d="M88 30C88 30 88 30 87.99 30C87.49 30 71.64 29.91 73.09 20.94C73.1 20.88 73.11 20.81 73.12 20.75C73.14 20.63 73.17 20.51 73.2 20.39C73.25 20.15 73.31 19.92 73.36 19.69C73.4 19.54 73.43 19.39 73.47 19.25C73.5 19.11 73.54 18.97 73.57 18.84C73.61 18.71 73.64 18.58 73.67 18.45C73.68 18.44 73.68 18.44 73.68 18.43C74.15 18.3 74.63 18.2 75.11 18.18C76.42 18.11 77.67 18.56 78.31 20.19C78.63 21.02 79.22 21.45 79.98 21.67C80.39 21.79 80.85 21.84 81.36 21.87C82.75 21.95 83.88 20.93 85.13 20.44C90.93 18.18 92.45 21.84 94.92 22.79C97.22 23.68 98.88 23.4 100.06 22.72C100.58 22.43 100.99 22.06 101.33 21.68C101.57 21.42 101.76 21.15 101.93 20.9C102.15 20.55 102.32 20.23 102.42 19.98C102.5 19.82 102.55 19.69 102.57 19.61C102.58 19.58 102.59 19.56 102.59 19.55C102.6 19.56 102.6 19.56 102.6 19.56C102.63 19.7 102.66 19.83 102.69 19.96C102.71 20.02 102.72 20.08 102.74 20.14C102.76 20.22 102.77 20.31 102.79 20.39C104.99 29.91 88.51 30 88 30Z" fill="#FFFFFF" fill-opacity="1.000000" fill-rule="nonzero"/>
				<path id="Vector" d="M73.67 18.45C73.64 18.58 73.61 18.71 73.57 18.84C73.54 18.97 73.5 19.11 73.47 19.25C73.43 19.39 73.4 19.54 73.36 19.69C73.31 19.92 73.25 20.15 73.2 20.39C73.17 20.51 73.14 20.63 73.12 20.75C73.11 20.81 73.1 20.88 73.09 20.94C71.64 29.91 87.49 30 87.99 30L88 30C88.5 30 104.08 29.92 102.94 21.17C102.9 20.92 102.86 20.65 102.79 20.39C102.77 20.31 102.76 20.22 102.74 20.14C102.72 20.08 102.71 20.02 102.69 19.96C102.66 19.83 102.63 19.7 102.6 19.56C102.6 19.56 102.6 19.56 102.59 19.55C102.59 19.56 102.58 19.58 102.57 19.61C102.55 19.69 102.5 19.82 102.42 19.98C102.32 20.23 102.15 20.55 101.93 20.9C101.91 20.92 101.9 20.94 101.89 20.96C101.73 21.19 101.55 21.44 101.33 21.68C100.99 22.06 100.58 22.43 100.06 22.72C98.88 23.4 97.22 23.68 94.92 22.79C94.25 22.53 93.65 22.07 93.01 21.59C91.31 20.29 89.36 18.79 85.13 20.44C84.73 20.6 84.34 20.82 83.94 21.03C83.12 21.48 82.3 21.93 81.36 21.87C80.85 21.84 80.39 21.79 79.98 21.67C79.22 21.45 78.63 21.02 78.31 20.19C77.67 18.56 76.42 18.11 75.11 18.18C74.63 18.2 74.15 18.3 73.68 18.43C73.68 18.44 73.68 18.44 73.67 18.45ZM74.5 19.26Q74.85 19.19 75.16 19.18Q75.96 19.13 76.48 19.42Q77.06 19.74 77.38 20.56Q77.65 21.25 78.13 21.73Q78.74 22.35 79.7 22.63Q80.36 22.82 81.3 22.87Q82.14 22.92 83.05 22.57Q83.38 22.45 83.78 22.25Q84 22.14 84.42 21.91Q84.8 21.7 84.99 21.61Q85.27 21.46 85.5 21.38Q86.87 20.84 88 20.74Q88.94 20.65 89.76 20.87Q90.44 21.06 91.14 21.48Q91.43 21.66 91.77 21.91Q91.99 22.06 92.41 22.38Q93.06 22.88 93.4 23.11Q94.01 23.51 94.56 23.72Q96.37 24.42 97.96 24.34Q98.9 24.29 99.74 23.98Q100.16 23.81 100.56 23.59L100.57 23.58Q101.34 23.14 101.98 22.45Q101.95 22.88 101.84 23.28Q101.8 23.43 101.75 23.58Q101.45 24.47 100.75 25.23Q99.27 26.83 96.12 27.81Q93.76 28.54 90.74 28.84Q89.77 28.93 88.83 28.97Q88.33 29 88 29L87.99 29Q87.67 29 87.19 28.97Q86.28 28.94 85.34 28.85Q82.42 28.56 80.09 27.87Q75.29 26.45 74.27 23.64Q73.85 22.49 74.08 21.1Q74.09 21.01 74.1 20.93Q74.13 20.78 74.17 20.61L74.23 20.35L74.33 19.92L74.44 19.49L74.5 19.26Z" fill="#FFFFFF" fill-opacity="1.000000" fill-rule="evenodd"/>
			</g>
		</g>
		<path id="Moon" d="M114.04 9.86L114.04 21.22L116.34 21.22L116.34 14.04L118.98 18.86L120.68 18.86L123.32 14.04L123.32 21.22L125.62 21.22L125.62 9.86L123.46 9.86L119.86 16.42L116.28 9.86L114.04 9.86ZM133.71 21.13C134.24 21.35 134.82 21.46 135.45 21.46C136.09 21.46 136.68 21.35 137.21 21.13C137.75 20.9 138.23 20.59 138.62 20.18Q138.82 19.98 138.99 19.76Q139.34 19.3 139.56 18.76C139.79 18.21 139.9 17.62 139.9 16.98Q139.9 16.02 139.56 15.22C139.35 14.68 139.05 14.21 138.65 13.82C138.26 13.41 137.79 13.1 137.26 12.87C136.73 12.65 136.14 12.54 135.52 12.54C134.88 12.54 134.28 12.65 133.74 12.87C133.21 13.1 132.74 13.41 132.33 13.82C131.94 14.22 131.63 14.7 131.4 15.24C131.18 15.77 131.07 16.36 131.07 17C131.07 17.64 131.17 18.23 131.39 18.78C131.61 19.32 131.92 19.79 132.32 20.2C132.71 20.59 133.17 20.9 133.71 21.13ZM147.61 21.13C148.14 21.35 148.72 21.46 149.35 21.46C149.99 21.46 150.58 21.35 151.11 21.13C151.66 20.9 152.13 20.59 152.52 20.18Q152.72 19.98 152.89 19.76Q153.24 19.3 153.47 18.76C153.69 18.21 153.8 17.62 153.8 16.98C153.8 16.34 153.69 15.76 153.47 15.22C153.25 14.68 152.95 14.21 152.55 13.82C152.16 13.41 151.7 13.1 151.16 12.87C150.63 12.65 150.05 12.54 149.42 12.54C148.78 12.54 148.19 12.65 147.64 12.87C147.11 13.1 146.64 13.41 146.23 13.82C145.84 14.22 145.53 14.7 145.31 15.24C145.08 15.77 144.97 16.36 144.97 17C144.97 17.64 145.08 18.23 145.29 18.78Q145.55 19.4 145.96 19.91Q146.08 20.06 146.22 20.2C146.61 20.59 147.08 20.9 147.61 21.13ZM159.11 12.78L159.11 21.22L161.35 21.22L161.35 16.37C161.35 16.02 161.43 15.71 161.58 15.43C161.73 15.15 161.93 14.94 162.19 14.79C162.44 14.63 162.74 14.55 163.08 14.55C163.55 14.55 163.92 14.72 164.19 15.06C164.45 15.39 164.59 15.85 164.59 16.44L164.59 21.22L166.83 21.22L166.83 16.15C166.83 15.42 166.7 14.78 166.44 14.23C166.19 13.69 165.82 13.27 165.35 12.98C164.9 12.68 164.36 12.54 163.74 12.54C163.18 12.54 162.69 12.66 162.25 12.9C161.82 13.14 161.49 13.46 161.24 13.86L161.18 12.78L159.11 12.78ZM136.57 19.13C136.25 19.34 135.89 19.45 135.48 19.45C135.08 19.45 134.72 19.34 134.39 19.13C134.08 18.91 133.82 18.63 133.63 18.26C133.45 17.89 133.36 17.47 133.36 17C133.36 16.53 133.45 16.11 133.63 15.75C133.82 15.38 134.08 15.08 134.39 14.87C134.72 14.66 135.08 14.55 135.48 14.55C135.89 14.55 136.25 14.66 136.57 14.87C136.89 15.08 137.14 15.38 137.32 15.75C137.52 16.11 137.61 16.53 137.61 17Q137.61 17.69 137.34 18.24Q137.33 18.25 137.32 18.26C137.14 18.63 136.89 18.91 136.57 19.13ZM150.47 19.13C150.15 19.34 149.79 19.45 149.39 19.45Q148.99 19.45 148.64 19.31Q148.46 19.24 148.3 19.13C147.98 18.91 147.72 18.63 147.53 18.26Q147.26 17.7 147.26 17C147.26 16.53 147.35 16.11 147.53 15.75C147.72 15.38 147.98 15.08 148.3 14.87C148.62 14.66 148.98 14.55 149.39 14.55Q149.78 14.55 150.13 14.69Q150.31 14.76 150.47 14.87C150.79 15.08 151.04 15.38 151.23 15.75C151.42 16.11 151.51 16.53 151.51 17C151.51 17.47 151.42 17.89 151.23 18.26C151.04 18.63 150.79 18.91 150.47 19.13Z" fill="#FFFFFF" fill-opacity="1.000000" fill-rule="evenodd"/>
		<path id="Silent" d="M16.13 11.14C16.24 10.95 16.3 10.73 16.3 10.49C16.3 10.24 16.24 10.02 16.13 9.83C16.02 9.64 15.87 9.49 15.66 9.38C15.47 9.27 15.26 9.21 15.02 9.21C14.79 9.21 14.57 9.27 14.37 9.38C14.17 9.49 14.02 9.64 13.9 9.83C13.8 10.02 13.74 10.24 13.74 10.49C13.74 10.73 13.8 10.95 13.9 11.14C14.02 11.34 14.17 11.49 14.37 11.61C14.57 11.71 14.79 11.77 15.02 11.77C15.26 11.77 15.47 11.71 15.66 11.61C15.87 11.49 16.02 11.34 16.13 11.14ZM21.77 9.29L21.77 21.22L24.01 21.22L24.01 9.29L21.77 9.29ZM2.65 21.11C3.23 21.35 3.86 21.46 4.54 21.46Q5.44 21.46 6.19 21.21C6.69 21.03 7.13 20.77 7.5 20.44C7.87 20.11 8.16 19.72 8.36 19.27C8.58 18.82 8.68 18.33 8.68 17.78Q8.68 16.95 8.33 16.31Q8.14 15.95 7.84 15.66C7.28 15.1 6.42 14.7 5.26 14.44L4.75 14.33C4.18 14.2 3.76 14.04 3.47 13.85Q3.28 13.72 3.17 13.54Q3.04 13.3 3.04 12.98C3.04 12.74 3.1 12.52 3.23 12.33C3.37 12.12 3.55 11.97 3.77 11.86C4.01 11.75 4.27 11.69 4.56 11.69Q4.97 11.69 5.32 11.84Q5.49 11.92 5.64 12.04C5.96 12.26 6.19 12.59 6.32 13.02L8.51 12.54C8.38 11.94 8.13 11.42 7.76 10.98C7.38 10.55 6.92 10.21 6.38 9.97Q6.27 9.93 6.15 9.88Q5.43 9.62 4.62 9.62Q3.79 9.62 3.07 9.89C2.59 10.07 2.17 10.31 1.8 10.63Q1.56 10.84 1.37 11.09Q1.14 11.38 0.97 11.74Q0.94 11.8 0.92 11.86Q0.67 12.45 0.67 13.14Q0.67 13.82 0.92 14.38Q1.12 14.85 1.5 15.24Q2.33 16.09 4.09 16.47L4.6 16.58C5.2 16.72 5.63 16.9 5.9 17.13C6.17 17.34 6.3 17.62 6.3 17.98C6.3 18.25 6.22 18.5 6.08 18.71Q6.07 18.72 6.07 18.72Q5.86 19.03 5.47 19.22C5.21 19.34 4.91 19.4 4.57 19.4Q3.99 19.4 3.54 19.16Q3.43 19.1 3.32 19.03C2.98 18.79 2.74 18.44 2.6 18.01L0.38 18.49Q0.55 19.2 0.94 19.77Q1.06 19.93 1.2 20.09Q1.38 20.29 1.59 20.46Q2.06 20.86 2.65 21.11ZM58.14 21.13C58.57 21.35 59.07 21.46 59.66 21.46Q60.25 21.46 60.77 21.3C61.11 21.21 61.42 21.07 61.69 20.9L61.29 19.22C61.1 19.31 60.9 19.38 60.69 19.43C60.48 19.48 60.29 19.51 60.11 19.51C59.76 19.51 59.5 19.4 59.33 19.19C59.15 18.97 59.07 18.65 59.07 18.25L59.07 14.58L61.37 14.58L61.37 12.78L59.07 12.78L59.07 9.89L56.83 9.89L56.83 12.78L55.39 12.78L55.39 14.58L56.83 14.58L56.83 18.52Q56.83 19.46 57.17 20.12C57.4 20.56 57.73 20.89 58.14 21.13ZM31.9 21.14Q32.7 21.46 33.65 21.46C34.22 21.46 34.77 21.37 35.28 21.19C35.79 21 36.24 20.73 36.62 20.39C37.01 20.05 37.29 19.64 37.49 19.16L35.49 18.52Q35.25 18.92 34.9 19.17Q34.81 19.24 34.7 19.3C34.39 19.48 34.05 19.58 33.66 19.58C33.11 19.58 32.65 19.4 32.29 19.05C31.92 18.68 31.69 18.19 31.6 17.56L37.66 17.56L37.66 17C37.66 16.33 37.56 15.72 37.36 15.18C37.17 14.63 36.89 14.16 36.53 13.77C36.16 13.37 35.73 13.07 35.21 12.86C34.71 12.64 34.15 12.54 33.53 12.54C32.94 12.54 32.38 12.65 31.87 12.87C31.36 13.1 30.91 13.41 30.53 13.82C30.15 14.21 29.86 14.68 29.65 15.22Q29.33 16.04 29.33 16.98Q29.33 17.96 29.65 18.79C29.86 19.34 30.16 19.81 30.54 20.21C30.93 20.61 31.38 20.92 31.9 21.14ZM42.89 12.78L42.89 21.22L45.13 21.22L45.13 16.37C45.13 16.02 45.21 15.71 45.36 15.43C45.51 15.15 45.71 14.94 45.96 14.79C46.22 14.63 46.52 14.55 46.86 14.55C47.33 14.55 47.7 14.72 47.96 15.06C48.23 15.39 48.36 15.85 48.36 16.44L48.36 21.22L50.6 21.22L50.6 16.15C50.6 15.42 50.48 14.78 50.22 14.23C49.96 13.69 49.6 13.27 49.13 12.98C48.67 12.68 48.13 12.54 47.52 12.54C46.96 12.54 46.47 12.66 46.03 12.9C45.6 13.14 45.27 13.46 45.02 13.86L44.96 12.78L42.89 12.78ZM13.9 12.78L13.9 21.22L16.14 21.22L16.14 12.78L13.9 12.78ZM32.29 14.74C32.63 14.42 33.04 14.26 33.53 14.26C34.01 14.26 34.41 14.42 34.73 14.74C35.06 15.06 35.27 15.5 35.36 16.06L31.63 16.06C31.74 15.5 31.95 15.06 32.29 14.74Z" fill="#FFFFFF" fill-opacity="1.000000" fill-rule="evenodd"/>
	</g>
</svg>
