<svg width="430.000000" height="257.996582" viewBox="0 0 430 257.997" fill="none" xmlns="http://www.w3.org/2000/svg" xmlns:xlink="http://www.w3.org/1999/xlink">
	<desc>
			Created with Pixso.
	</desc>
	<defs/>
	<path id="Vector" d="M75.58 224.99L0 257.99L430 257.99L356.49 224.99L75.58 224.99Z" fill="#8C96FF" fill-opacity="1.000000" fill-rule="nonzero"/>
	<path id="Vector" d="M189.48 163.63L175.2 186.83L202.59 219.36L230.21 219.36L255.96 186.28L240.02 163.63L189.48 163.63Z" fill="#3F4553" fill-opacity="1.000000" fill-rule="nonzero"/>
	<path id="Vector" d="M175.02 186.99C175.02 186.99 113.51 191.82 98.08 208.15C82.65 224.49 89.91 242.23 104.94 242.23C132.61 242.23 191.15 243.95 218.84 242.23L220.5 203.98L175.02 186.99Z" fill="#3F4553" fill-opacity="1.000000" fill-rule="nonzero"/>
	<path id="Vector" d="M254.37 186.03C254.37 186.03 318.7 191.58 334.11 207.67C349.52 223.76 340.64 234.42 327.26 241.23C308.43 250.82 240.56 249.23 205.36 237.58L211.87 203.56L254.37 186.03Z" fill="#3F4553" fill-opacity="1.000000" fill-rule="nonzero"/>
	<path id="Vector" d="M257.2 217.63L252.85 206.39L258.26 203.98C258.26 203.98 257.51 197.33 264.15 196.05C270.78 194.77 278.68 199.05 286.38 195.6C293.48 192.42 302.17 189.49 310.28 193.89C311.48 194.54 312.04 195.97 311.63 197.27L311.6 197.37C311.19 198.68 309.91 199.49 308.54 199.35C305.68 199.06 300.57 199.12 295.54 202.17C286.85 207.45 257.2 217.63 257.2 217.63Z" fill="#FEBBA0" fill-opacity="1.000000" fill-rule="nonzero"/>
	<path id="Vector" d="M307.81 218.27C307.81 218.27 264.88 210.64 174.45 209.46L165.72 221.3C165.72 221.3 188.22 234.16 209.34 238.81C230.46 243.46 303.37 258.1 335.93 235.55L307.81 218.27Z" fill="#3F4553" fill-opacity="1.000000" fill-rule="nonzero"/>
	<path id="Vector" d="M209.34 238.82C187.69 233.82 165.04 221 165.04 221L166.39 218.71" stroke="#6E758F" stroke-opacity="1.000000" stroke-width="1.592500" stroke-linecap="round"/>
	<path id="Vector" d="M174.45 209.46C174.45 209.46 273.79 207.19 300.31 222.57" stroke="#6E758F" stroke-opacity="1.000000" stroke-width="1.592500" stroke-linecap="round"/>
	<path id="Vector" d="M125.68 215.9C125.68 215.9 143.82 207.4 156.22 212.97" stroke="#6E758F" stroke-opacity="1.000000" stroke-width="1.592500" stroke-linecap="round"/>
	<path id="Vector" d="M167.81 219.34L174.44 209.24L167.81 205.65C167.81 205.65 165.49 199.84 158.99 198.04C152.48 196.25 147.85 199.14 140.44 195.1C133.61 191.37 125.17 187.78 116.75 191.53C115.51 192.08 114.83 193.46 115.14 194.79L115.16 194.89C115.47 196.23 116.68 197.13 118.05 197.1C120.92 197.03 126.01 197.49 130.78 200.93C139.03 206.87 167.81 219.34 167.81 219.34Z" fill="#FEBBA0" fill-opacity="1.000000" fill-rule="nonzero"/>
	<path id="Vector" d="M224.89 209.82L252.05 207.15" stroke="#6E758F" stroke-opacity="1.000000" stroke-width="1.592500" stroke-linecap="round"/>
	<path id="Vector" d="M190.35 198.05L205.5 209.02" stroke="#6E758F" stroke-opacity="1.000000" stroke-width="1.592500" stroke-linecap="round"/>
	<path id="Vector" d="M186.44 48.76C187.08 55.02 192.53 59.58 198.61 58.96C204.69 58.34 209.1 52.76 208.46 46.51C207.82 40.25 202.37 35.69 196.29 36.31C190.22 36.92 185.81 42.5 186.44 48.76Z" fill="#3F4553" fill-opacity="1.000000" fill-rule="nonzero"/>
	<path id="Vector" d="M209.15 53.31C209.15 53.31 189.83 50.39 186.79 32.16C184.11 16.05 194.92 3.14 206.77 0.91C206.78 0.91 235.25 44.79 209.15 53.31Z" fill="#3F4553" fill-opacity="1.000000" fill-rule="nonzero"/>
	<path id="Vector" d="M209.59 2.64C208.17 3.34 206.82 4.26 205.59 5.45C194.58 16.04 201.55 36.6 211.41 45.88C216.87 51.01 224.85 53.4 231.82 50.78C242.01 46.95 245.2 35.41 243.13 25.13C241.59 17.47 237.34 10.24 231.07 5.74C224.8 1.25 216.33 -0.65 209.59 2.64Z" fill="#FDBCA0" fill-opacity="1.000000" fill-rule="nonzero"/>
	<path id="Vector" d="M207.76 39.68C205.83 41.59 202.47 42.37 199.89 41.46C197.31 40.55 195.19 38.12 194.52 35.3C193.92 32.77 194.57 29.89 196.43 28.34C198.29 26.79 201.64 26.89 203.23 28.9L207.76 39.68Z" fill="#FDBCA0" fill-opacity="1.000000" fill-rule="nonzero"/>
	<path id="Vector" d="M204.94 32.96L206.97 69.3C207.24 76.02 212.69 81.36 219.41 81.49C227.17 81.65 233.26 74.87 232.27 67.17L228.17 33.43L204.94 32.96Z" fill="#FDBCA0" fill-opacity="1.000000" fill-rule="nonzero"/>
	<path id="Vector" d="M230.93 56.21L230.42 51.23C230.42 51.23 220.42 54.3 211.41 45.87C211.41 45.88 216.6 55.35 230.93 56.21Z" fill="#DF8370" fill-opacity="1.000000" fill-rule="nonzero"/>
	<path id="Vector" d="M200.97 27.47C213.99 26.8 225.87 18.06 232.43 6.8C232.43 6.8 220.45 -4.57 202.94 2.08C188.43 7.58 200.97 27.47 200.97 27.47Z" fill="#3F4553" fill-opacity="1.000000" fill-rule="nonzero"/>
	<path id="Vector" d="M202.4 35.83C200.9 35.98 199.59 35.17 199.47 34.02C199.38 33.15 199.99 32.34 200.93 31.92" stroke="#444359" stroke-opacity="1.000000" stroke-width="1.114400" stroke-linecap="round"/>
	<path id="Vector" d="M233.68 32.99C233.98 32.08 234.5 31.36 235.08 30.68L235.36 31.56C234.7 31.31 234.34 30.93 233.97 30.56C233.62 30.17 233.31 29.78 233.03 29.36C232.47 28.53 232 27.65 231.66 26.72C232.36 27.43 233 28.16 233.67 28.86C234.01 29.2 234.33 29.55 234.68 29.85C235.01 30.14 235.4 30.44 235.67 30.51L236.48 30.7L235.95 31.39C235.41 32.1 234.81 32.76 233.98 33.24C233.88 33.3 233.76 33.26 233.7 33.17C233.67 33.1 233.67 33.04 233.68 32.99Z" fill="#444359" fill-opacity="1.000000" fill-rule="nonzero"/>
	<path id="Vector" d="M236.61 36.17C236.21 36.99 235.53 37.7 234.65 38.13C233.78 38.58 232.7 38.67 231.74 38.39C230.76 38.12 230 37.48 229.35 36.82C229.06 36.46 228.77 36.09 228.53 35.71C228.32 35.3 228.1 34.9 227.94 34.48C228.31 34.76 228.63 35.06 228.95 35.36L229.94 36.18C230.64 36.64 231.3 37.14 232.06 37.32C232.79 37.55 233.57 37.54 234.34 37.33C235.1 37.11 235.86 36.68 236.61 36.17Z" fill="#444359" fill-opacity="1.000000" fill-rule="nonzero"/>
	<path id="Vector" d="M226.14 23.1C226.53 24.26 226.75 25.46 226.67 26.75C226.62 27.38 226.47 28.07 226 28.68C225.52 29.3 224.71 29.57 224 29.55C223.27 29.54 222.55 29.22 222.06 28.77C221.55 28.32 221.15 27.8 220.85 27.25C220.25 26.14 219.87 24.98 219.68 23.76C219.65 23.57 219.78 23.39 219.97 23.35C220.15 23.32 220.31 23.43 220.36 23.59L220.37 23.61C220.71 24.69 221.16 25.78 221.74 26.72C222.32 27.63 223.11 28.47 224.04 28.44C224.5 28.46 224.93 28.34 225.19 28.01C225.48 27.69 225.62 27.17 225.7 26.64C225.85 25.57 225.75 24.39 225.57 23.26L225.57 23.24C225.54 23.08 225.66 22.92 225.82 22.9C225.95 22.88 226.09 22.97 226.14 23.1Z" fill="#444359" fill-opacity="1.000000" fill-rule="nonzero"/>
	<path id="Vector" d="M240.66 20.83C240.99 21.81 241.17 22.81 241.15 23.88C241.14 24.41 241.04 24.99 240.7 25.54C240.37 26.12 239.63 26.48 238.99 26.45C238.32 26.44 237.71 26.09 237.32 25.68C236.92 25.26 236.61 24.81 236.38 24.33C235.93 23.37 235.65 22.39 235.51 21.36C235.48 21.17 235.62 20.99 235.82 20.96C235.99 20.94 236.15 21.04 236.2 21.2L236.21 21.22C236.5 22.12 236.85 23.04 237.3 23.84C237.75 24.62 238.36 25.37 239.03 25.33C239.37 25.34 239.64 25.24 239.82 24.96C240.02 24.68 240.12 24.25 240.18 23.8C240.28 22.9 240.2 21.91 240.09 20.97L240.09 20.95C240.07 20.79 240.19 20.64 240.35 20.61C240.48 20.61 240.62 20.7 240.66 20.83Z" fill="#444359" fill-opacity="1.000000" fill-rule="nonzero"/>
	<path id="Vector" d="M251.46 72.6C251.37 66.5 231.59 61.62 231.59 61.62C230.35 62.99 228.22 65.3 219.25 65.3C210.67 65.3 207.24 63.08 205.9 61.62L197.41 61.62C195.52 61.62 193.79 62.7 193 64.42C175.99 101.63 185.55 143.19 189.47 163.62C189.83 165.5 225.33 164.23 241.34 165.5C244.8 165.79 251.8 94.77 251.46 72.6Z" fill="#FEE6C6" fill-opacity="1.000000" fill-rule="nonzero"/>
	<path id="Vector" d="M210.15 125.22C211.91 111 214.06 102.47 215.71 105.27C217.17 107.75 216.36 120.19 214.17 132.19C214.18 132.19 209.4 131.31 210.15 125.22Z" fill="#FEBBA0" fill-opacity="1.000000" fill-rule="nonzero"/>
	<path id="Vector" d="M221.77 125.22C220.01 111 217.86 102.47 216.21 105.27C214.75 107.75 215.56 120.19 217.75 132.19C217.74 132.19 222.52 131.31 221.77 125.22Z" fill="#FEBBA0" fill-opacity="1.000000" fill-rule="nonzero"/>
	<path id="Vector" d="M280.39 121.69L258.04 121.69L261.59 144.39L221.03 124.6C220.89 123.08 220.7 121.2 220.47 119.21C218.94 119.21 217.4 119.21 215.87 119.19C215.88 120.92 215.91 122.09 215.91 122.09C215.91 122.09 215.12 132.53 216.93 136.01C220.37 142.63 255.56 163.95 265.32 166.48C265.94 166.64 266.54 166.76 267.16 166.84C276.59 168.17 282.84 162.88 282.76 153.36L280.39 121.69Z" fill="#FEBBA0" fill-opacity="1.000000" fill-rule="nonzero"/>
	<path id="Vector" d="M211.05 119.11C210.7 121.35 210.39 123.51 210.15 125.22L170.76 143.46L172.42 121.7L150.07 121.7L147.7 153.39C147.64 162.91 153.89 168.19 163.31 166.87C163.92 166.78 164.53 166.66 165.14 166.51C174.91 163.98 207.64 146.29 214.63 135.97C216.7 132.92 215.72 122.65 215.72 122.65C215.72 122.65 215.72 121.23 215.68 119.21C214.14 119.18 212.6 119.15 211.05 119.11Z" fill="#FEBBA0" fill-opacity="1.000000" fill-rule="nonzero"/>
	<path id="Vector" d="M178.14 134.11C186.88 108.26 186.81 108.24 197.54 61.63C190.36 62.12 189.62 60.95 183.96 63.89C166.98 72.71 150.99 101.68 146.28 134.11L178.14 134.11Z" fill="#FEE6C6" fill-opacity="1.000000" fill-rule="nonzero"/>
	<path id="Vector" d="M255.96 131.56C250.82 113.25 231.59 61.63 231.59 61.63C250.82 60.98 277.06 86.05 283.34 128.21L255.96 131.56Z" fill="#FEE6C6" fill-opacity="1.000000" fill-rule="nonzero"/>
	<path id="Vector" d="M251.47 91.13L247.42 124.41" stroke="#EED2AD" stroke-opacity="1.000000" stroke-width="1.592500" stroke-linecap="round"/>
	<path id="Vector" d="M181.82 96.59L185.04 132.19" stroke="#EED2AD" stroke-opacity="1.000000" stroke-width="1.592500" stroke-linecap="round"/>
</svg>
